<svg width="24" height="24" viewBox="0 0 24 24" fill="none" xmlns="http://www.w3.org/2000/svg">
<path fill-rule="evenodd" clip-rule="evenodd" d="M2.45492 9.14C2.45492 5.44797 5.4479 2.455 9.13992 2.455C12.8319 2.455 15.8249 5.44797 15.8249 9.14C15.8249 12.832 12.8319 15.825 9.13992 15.825C5.4479 15.825 2.45492 12.832 2.45492 9.14ZM9.13992 0.544998C4.39303 0.544998 0.544922 4.39311 0.544922 9.14C0.544922 13.8869 4.39303 17.735 9.13992 17.735C11.1693 17.735 13.0344 17.0317 14.5048 15.8555L21.8246 23.1753L23.1752 21.8247L15.8554 14.5049C17.0316 13.0345 17.7349 11.1694 17.7349 9.14C17.7349 4.39311 13.8868 0.544998 9.13992 0.544998ZM8.18506 10.095H5.32007V8.185H8.18506V5.32H10.0951V8.185H12.9501V10.095H10.0951V12.95H8.18506V10.095Z" fill="white"/>
</svg>
