<svg width="24" height="24" viewBox="0 0 24 24" fill="none" xmlns="http://www.w3.org/2000/svg">
<path d="M13 9L11 9L11 7L13 7L13 9ZM13 17L11 17L11 11L13 11L13 17ZM12 22C17.53 22 22 17.5 22 12C22 9.34784 20.9464 6.8043 19.0711 4.92893C18.1425 4.00035 17.0401 3.26375 15.8268 2.7612C14.6136 2.25866 13.3132 2 12 2C9.34784 2 6.8043 3.05357 4.92893 4.92893C3.05357 6.80429 2 9.34783 2 12C2 13.3132 2.25866 14.6136 2.7612 15.8268C3.26375 17.0401 4.00035 18.1425 4.92893 19.0711C5.85752 19.9997 6.95991 20.7362 8.17317 21.2388C9.38642 21.7413 10.6868 22 12 22ZM12 4C14.1217 4 16.1566 4.84285 17.6569 6.34314C19.1571 7.84344 20 9.87827 20 12C20 14.1217 19.1571 16.1566 17.6569 17.6569C16.1566 19.1571 14.1217 20 12 20C9.87827 20 7.84344 19.1571 6.34315 17.6569C4.84285 16.1566 4 14.1217 4 12C4 9.87827 4.84286 7.84343 6.34315 6.34314C7.84344 4.84285 9.87827 4 12 4Z" fill="#41657C"/>
</svg>
