<svg xmlns="http://www.w3.org/2000/svg" viewBox="0 0 101.47 60.71"><defs><style>.cls-1{fill:#1c2c3d;}.cls-2{fill:#e0931e;}</style></defs><g id="圖層_2" data-name="圖層 2"><g id="圖層_2-2" data-name="圖層 2"><path class="cls-1" d="M85.41,31.93a20.25,20.25,0,0,1-5.22-.62,10.65,10.65,0,0,1-4-1.42,4,4,0,0,1-1.12-.95A2.17,2.17,0,0,1,75,28V26.24c0-.62.32-1.11.79-1.11a.92.92,0,0,1,.63.16c.16.16.47.16.8.33A13.47,13.47,0,0,0,81,26.71a16.25,16.25,0,0,0,4,.49,8.69,8.69,0,0,0,4.91-1.12,3.66,3.66,0,0,0,1.74-3.16,3.22,3.22,0,0,0-1-2.37,8,8,0,0,0-3.33-1.74l-4.89-1.58A9.28,9.28,0,0,1,77,13.91,8.08,8.08,0,0,1,75.29,9a7.51,7.51,0,0,1,.95-3.81,10.28,10.28,0,0,1,2.37-2.83A8.92,8.92,0,0,1,82.09.63,16.67,16.67,0,0,1,86.36,0a10.91,10.91,0,0,1,2.21.14C89.36.3,90,.3,90.78.46l1.9.48a2.85,2.85,0,0,1,1.42.64c.48.3.8.46,1,.79a2.19,2.19,0,0,1,.32,1.09V5.05c0,.64-.32,1.11-.79,1.11a3.21,3.21,0,0,1-1.27-.47,16.9,16.9,0,0,0-6.48-1.28,8.33,8.33,0,0,0-4.42,1,3.1,3.1,0,0,0-1.59,3,3.3,3.3,0,0,0,.94,2.37,10.54,10.54,0,0,0,3.81,1.89l4.74,1.58a10.78,10.78,0,0,1,5.22,3.32,7.53,7.53,0,0,1,1.58,4.75,8.62,8.62,0,0,1-1,3.95,10.78,10.78,0,0,1-2.37,3A14.11,14.11,0,0,1,90,31.15a13.52,13.52,0,0,1-4.58.78M42.08,31a2.63,2.63,0,0,1-1.26-.3c-.32-.16-.48-.65-.64-1.28L32.27,3.32A7.88,7.88,0,0,1,32,1.88a.75.75,0,0,1,.79-.79h3.32a2,2,0,0,1,1.27.33c.31.16.47.62.63,1.25L43.66,25l5.22-22.3c.16-.63.31-1.09.63-1.25a3.12,3.12,0,0,1,1.42-.33h2.69a3.13,3.13,0,0,1,1.43.33c.31.16.47.62.63,1.25l5.37,22.62L66.9,2.67a3,3,0,0,1,.64-1.25,2.4,2.4,0,0,1,1.27-.33H72a.75.75,0,0,1,.79.79v.49a6.64,6.64,0,0,0-.15.79L64.37,29.24a2.85,2.85,0,0,1-.63,1.28,2.42,2.42,0,0,1-1.26.3h-3a3.13,3.13,0,0,1-1.42-.3c-.32-.17-.47-.63-.63-1.43L52.2,7.58,47,29.24a3.11,3.11,0,0,1-.63,1.44,3.46,3.46,0,0,1-1.42.3Zm-27.2-3.62a9.3,9.3,0,0,0,3.48-.65,7.11,7.11,0,0,0,3.16-2.21,5.91,5.91,0,0,0,1.11-2.21,14.76,14.76,0,0,0,.31-2.85V18c-1-.16-2.05-.48-3.16-.62a20.65,20.65,0,0,0-3.16-.17,7.69,7.69,0,0,0-5.06,1.42,4.79,4.79,0,0,0-1.58,4,5.35,5.35,0,0,0,1.26,3.64,6.65,6.65,0,0,0,3.64,1.12m13.75-5.23a14.38,14.38,0,0,0,.32,3,15.78,15.78,0,0,0,1.11,2.37,1.52,1.52,0,0,1,.15.8,1.1,1.1,0,0,1-.63.94l-2,1.44a2.51,2.51,0,0,1-.94.3,1.42,1.42,0,0,1-1-.46,6.94,6.94,0,0,1-1.27-1.58c-.31-.64-.63-1.28-1.1-2.07a12.58,12.58,0,0,1-10,4.74,9.63,9.63,0,0,1-6.8-2.37A8.93,8.93,0,0,1,4,22.76a8.64,8.64,0,0,1,3-7,12.27,12.27,0,0,1,8.22-2.69,32.55,32.55,0,0,1,3.63.31,34.22,34.22,0,0,1,3.8.79V11.69c0-2.52-.48-4.42-1.58-5.37C19.94,5.2,18.2,4.74,15.51,4.74a16.19,16.19,0,0,0-3.64.46A36,36,0,0,0,8.24,6.32a4.07,4.07,0,0,0-1.11.47A1.63,1.63,0,0,0,6.66,7C6.18,7,6,6.64,6,5.85V4.26a2.11,2.11,0,0,1,.15-1.1,2.28,2.28,0,0,1,1-.63A18.18,18.18,0,0,1,11.4.94,18.68,18.68,0,0,1,16.62.3c3.95,0,7,1,8.85,2.7,1.9,1.9,2.85,4.58,2.85,8.22V22.13Z"/><path class="cls-2" d="M91.73,48.22c-11.07,8.23-27.2,12.49-41.11,12.49A73.71,73.71,0,0,1,.48,41.58c-1.09-.94-.15-2.22,1.12-1.43A100.06,100.06,0,0,0,51.88,53.44a98.27,98.27,0,0,0,38.27-7.9c1.9-.65,3.48,1.42,1.58,2.68"/><path class="cls-2" d="M96.32,43c-1.42-1.9-9.33-.79-13-.49-1.1.16-1.26-.79-.31-1.58,6.32-4.41,16.76-3.15,18-1.74,1.27,1.59-.32,12-6.32,16.93-.95.79-1.74.32-1.43-.63,1.43-3.17,4.43-10.61,3-12.49"/></g></g></svg>