<?xml version="1.0" encoding="UTF-8"?><svg id="a" xmlns="http://www.w3.org/2000/svg" width="23" height="23" xmlns:xlink="http://www.w3.org/1999/xlink" viewBox="0 0 23 23"><defs><style>.d{fill:url(#c);}.e{fill:#fff;}</style><radialGradient id="c" cx="-1250.88" cy="1246.54" fx="-1250.88" fy="1246.54" r="70.82" gradientTransform="translate(-938.62 -912.38) rotate(-180) scale(.75 -.75)" gradientUnits="userSpaceOnUse"><stop offset="0" stop-color="#f9ed32"/><stop offset=".36" stop-color="#ee2a7b"/><stop offset=".44" stop-color="#d22a8a"/><stop offset=".6" stop-color="#8b2ab2"/><stop offset=".83" stop-color="#1b2af0"/><stop offset=".88" stop-color="#002aff"/></radialGradient></defs><g id="b"><rect class="d" width="23" height="23" rx="4.02" ry="4.02"/><path class="e" d="M15.81,20.12H7.19c-2.38,0-4.31-1.93-4.31-4.31V7.19c0-2.38,1.93-4.31,4.31-4.31H15.81c2.38,0,4.31,1.93,4.31,4.31V15.81c0,2.38-1.93,4.31-4.31,4.31ZM7.19,4.6c-1.43,0-2.59,1.16-2.59,2.59V15.81c0,1.43,1.16,2.59,2.59,2.59H15.81c1.43,0,2.59-1.16,2.59-2.59V7.19c0-1.43-1.16-2.59-2.59-2.59H7.19Z"/><path class="e" d="M11.5,16.39c-2.7,0-4.89-2.19-4.89-4.89,0-2.7,2.19-4.89,4.89-4.89,2.7,0,4.89,2.19,4.89,4.89h0c0,2.7-2.19,4.89-4.89,4.89Zm0-8.05c-1.75,0-3.16,1.42-3.16,3.16s1.42,3.16,3.16,3.16,3.16-1.42,3.16-3.16c0-1.75-1.42-3.16-3.16-3.16Z"/><circle class="e" cx="16.39" cy="6.9" r=".86"/></g></svg>