<svg width="23" height="23" viewBox="0 0 23 23" fill="none" xmlns="http://www.w3.org/2000/svg">
<path d="M4.025 23L18.975 23C21.1979 23 23 21.1979 23 18.975L23 4.025C23 1.80205 21.1979 0 18.975 0L4.025 0C1.80205 0 0 1.80205 0 4.025L0 18.975C0 21.1979 1.80205 23 4.025 23Z" fill="#00CF2E"/>
<path d="M20.2686 10.2064C20.2686 7.04387 16.5311 3.59387 11.6436 3.59387C6.88184 3.59387 3.01855 6.397 3.01855 10.2064C3.01855 13.7211 6.03012 16.6248 10.2671 17.0525C10.3962 17.0631 10.5212 17.1029 10.6326 17.1689C10.744 17.2349 10.839 17.3253 10.9104 17.4334C11.0122 17.5936 11.067 17.7791 11.0686 17.9689C11.0587 18.3588 11.0154 18.7471 10.9392 19.1297C10.9274 19.1815 10.9303 19.2356 10.9475 19.2859C10.9646 19.3362 10.9954 19.3808 11.0363 19.4147C11.0773 19.4486 11.1268 19.4704 11.1795 19.4778C11.2321 19.4853 11.2858 19.4779 11.3345 19.4567C13.365 18.5582 20.2686 14.8639 20.2686 10.2064Z" fill="white"/>
<path d="M8.48047 11.7878H7.18672V8.76902C7.18672 8.65464 7.14128 8.54495 7.06041 8.46408C6.97953 8.3832 6.86984 8.33777 6.75547 8.33777C6.64109 8.33777 6.5314 8.3832 6.45053 8.46408C6.36965 8.54495 6.32422 8.65464 6.32422 8.76902V12.219C6.32422 12.3334 6.36965 12.4431 6.45053 12.524C6.5314 12.6048 6.64109 12.6503 6.75547 12.6503H8.48047C8.59484 12.6503 8.70453 12.6048 8.78541 12.524C8.86628 12.4431 8.91172 12.3334 8.91172 12.219C8.91172 12.1046 8.86628 11.995 8.78541 11.9141C8.70453 11.8332 8.59484 11.7878 8.48047 11.7878Z" fill="#00CF2E"/>
<path d="M9.63047 8.33777C9.51609 8.33777 9.4064 8.3832 9.32553 8.46408C9.24465 8.54495 9.19922 8.65464 9.19922 8.76902V12.219C9.19922 12.3334 9.24465 12.4431 9.32553 12.524C9.4064 12.6048 9.51609 12.6503 9.63047 12.6503C9.74484 12.6503 9.85453 12.6048 9.93541 12.524C10.0163 12.4431 10.0617 12.3334 10.0617 12.219V8.76902C10.0617 8.65464 10.0163 8.54495 9.93541 8.46408C9.85453 8.3832 9.74484 8.33777 9.63047 8.33777Z" fill="#00CF2E"/>
<path d="M13.6567 8.33777C13.6001 8.33777 13.544 8.34892 13.4917 8.3706C13.4394 8.39227 13.3918 8.42403 13.3518 8.46408C13.3117 8.50412 13.28 8.55167 13.2583 8.60399C13.2366 8.65631 13.2255 8.71239 13.2255 8.76902V10.9253L11.4286 8.51027C11.3743 8.43786 11.2986 8.38437 11.2122 8.35738C11.1258 8.3304 11.0331 8.33128 10.9472 8.3599C10.8614 8.38852 10.7867 8.44344 10.7337 8.51686C10.6808 8.59029 10.6523 8.67851 10.6523 8.76902V12.219C10.6707 12.3181 10.7231 12.4077 10.8006 12.4721C10.878 12.5366 10.9756 12.5719 11.0764 12.5719C11.1772 12.5719 11.2748 12.5366 11.3522 12.4721C11.4297 12.4077 11.4821 12.3181 11.5005 12.219V10.0628L13.2973 12.4778C13.3387 12.5335 13.3931 12.5784 13.4557 12.6085C13.5183 12.6385 13.5873 12.6529 13.6567 12.6503C13.7031 12.6501 13.7491 12.6428 13.7933 12.6287C13.8792 12.6 13.9539 12.545 14.0068 12.4715C14.0597 12.3979 14.0881 12.3096 14.088 12.219V8.76902C14.088 8.71239 14.0768 8.65631 14.0551 8.60399C14.0335 8.55167 14.0017 8.50412 13.9617 8.46408C13.9216 8.42403 13.8741 8.39227 13.8218 8.3706C13.7694 8.34892 13.7134 8.33777 13.6567 8.33777Z" fill="#00CF2E"/>
<path d="M16.8184 10.9253C16.875 10.9253 16.9311 10.9141 16.9834 10.8924C17.0357 10.8708 17.0833 10.839 17.1233 10.799C17.1633 10.7589 17.1951 10.7114 17.2168 10.6591C17.2385 10.6067 17.2496 10.5507 17.2496 10.494C17.2496 10.4374 17.2385 10.3813 17.2168 10.329C17.1951 10.2767 17.1633 10.2291 17.1233 10.1891C17.0833 10.149 17.0357 10.1173 16.9834 10.0956C16.9311 10.0739 16.875 10.0628 16.8184 10.0628H15.5246V9.20027H16.8184C16.9327 9.20027 17.0424 9.15483 17.1233 9.07396C17.2042 8.99308 17.2496 8.88339 17.2496 8.76902C17.2496 8.65464 17.2042 8.54495 17.1233 8.46408C17.0424 8.3832 16.9327 8.33777 16.8184 8.33777H15.0934C14.979 8.33777 14.8693 8.3832 14.7884 8.46408C14.7075 8.54495 14.6621 8.65464 14.6621 8.76902V12.219C14.6621 12.3334 14.7075 12.4431 14.7884 12.524C14.8693 12.6048 14.979 12.6503 15.0934 12.6503H16.8184C16.9327 12.6503 17.0424 12.6048 17.1233 12.524C17.2042 12.4431 17.2496 12.3334 17.2496 12.219C17.2496 12.1046 17.2042 11.995 17.1233 11.9141C17.0424 11.8332 16.9327 11.7878 16.8184 11.7878H15.5246V10.9253H16.8184Z" fill="#00CF2E"/>
</svg>
