<?xml version="1.0" encoding="UTF-8"?><svg id="a" xmlns="http://www.w3.org/2000/svg" width="23" height="23" viewBox="0 0 23 23"><defs><style>.b{fill:#007bb5;}.c{fill:#fff;}</style></defs><path class="b" d="M23,21.56c0,.79-.64,1.44-1.44,1.44H1.44c-.79,0-1.44-.64-1.44-1.44V1.44C0,.64,.64,0,1.44,0H21.56C22.36,0,23,.64,23,1.44V21.56Z"/><path class="c" d="M7.91,7.76h-2.88v10.06h2.88V7.76Z"/><path class="c" d="M14.73,7.76c-2.01,0-2.35,.73-2.51,1.44v-1.44h-2.88v10.06h2.88v-5.75c0-.93,.51-1.44,1.44-1.44s1.44,.49,1.44,1.44v5.75h2.88v-5.03c0-2.88-.37-5.03-3.24-5.03Z"/><path class="c" d="M6.47,7.04c.79,0,1.44-.64,1.44-1.44s-.64-1.44-1.44-1.44-1.44,.64-1.44,1.44,.64,1.44,1.44,1.44Z"/></svg>