<?xml version="1.0" encoding="UTF-8"?><svg id="a" xmlns="http://www.w3.org/2000/svg" width="23" height="23" viewBox="0 0 23 23"><defs><style>.b{fill:#6ab8ba;}</style></defs><path class="b" d="M21.59,0H1.41C.63,0,0,.63,0,1.41V21.59c0,.78,.63,1.41,1.41,1.41H21.59c.78,0,1.41-.63,1.41-1.41V1.41c0-.78-.63-1.41-1.41-1.41ZM7.91,17.82h-2.88V7.76h2.88v10.06Zm-1.44-10.78c-.79,0-1.44-.64-1.44-1.44s.64-1.44,1.44-1.44,1.44,.64,1.44,1.44-.64,1.44-1.44,1.44Zm11.5,10.78h-2.88v-5.75c0-.94-.53-1.44-1.44-1.44s-1.44,.51-1.44,1.44v5.75h-2.88V7.76h2.88v1.44c.16-.71,.51-1.44,2.51-1.44,2.86,0,3.24,2.16,3.24,5.03v5.03Z"/></svg>