<svg width="23" height="23" viewBox="0 0 23 23" fill="none" xmlns="http://www.w3.org/2000/svg">
<path d="M18.975 0H4.025C1.80205 0 0 1.80205 0 4.025V18.975C0 21.1979 1.80205 23 4.025 23H18.975C21.1979 23 23 21.1979 23 18.975V4.025C23 1.80205 21.1979 0 18.975 0Z" fill="#00AFED"/>
<path d="M19.0867 13.0632C19.3011 11.8153 19.2135 10.5341 18.8311 9.327C18.4488 8.11986 17.7829 7.02187 16.8891 6.12492C15.9953 5.22797 14.8997 4.55816 13.6939 4.17155C12.4881 3.78494 11.2073 3.69278 9.95856 3.90278C9.11594 3.43018 8.14205 3.24567 7.18496 3.3773C6.22786 3.50893 5.33994 3.94951 4.65619 4.63203C3.97244 5.31456 3.53028 6.2017 3.39694 7.15855C3.2636 8.11541 3.44637 9.08963 3.91747 9.93309C3.69728 11.1822 3.78084 12.4659 4.16107 13.6758C4.5413 14.8858 5.20706 15.9866 6.10213 16.8852C6.99721 17.7838 8.09534 18.4539 9.30382 18.8388C10.5123 19.2238 11.7957 19.3124 13.0456 19.0972C13.8887 19.5677 14.8622 19.7505 15.8186 19.6178C16.7749 19.4851 17.6619 19.0441 18.345 18.3618C19.0282 17.6795 19.4702 16.793 19.604 15.8368C19.7378 14.8807 19.5562 13.9069 19.0867 13.0632V13.0632Z" fill="white"/>
<path d="M11.5177 16.5312C10.8105 16.5275 10.116 16.3429 9.50015 15.9951C8.88436 15.6472 8.36775 15.1477 7.99943 14.5439C7.94164 14.4449 7.90417 14.3354 7.88921 14.2217C7.87425 14.108 7.8821 13.9925 7.9123 13.8819C7.9425 13.7713 7.99445 13.6679 8.0651 13.5776C8.13576 13.4873 8.2237 13.412 8.32379 13.3561C8.42388 13.3002 8.53411 13.2648 8.64804 13.252C8.76197 13.2392 8.8773 13.2493 8.9873 13.2816C9.0973 13.3139 9.19976 13.3678 9.28869 13.4401C9.37761 13.5125 9.45122 13.6018 9.50521 13.703C9.72282 14.0394 10.0207 14.3164 10.372 14.509C10.7233 14.7016 11.1171 14.8037 11.5177 14.8063C12.8151 14.8063 13.8177 14.2852 13.8177 13.8359C13.8177 13.2034 13.6344 12.6069 11.3955 12.2798C8.42349 11.8486 8.10365 10.2098 8.10365 9.52344C8.10365 7.00781 9.96161 6.46875 11.5177 6.46875C14.3927 6.46875 15.2229 8.30875 15.2552 8.38781C15.3024 8.49093 15.3288 8.60233 15.333 8.71566C15.3371 8.82899 15.3189 8.94203 15.2793 9.04832C15.2398 9.1546 15.1797 9.25206 15.1025 9.33512C15.0253 9.41819 14.9325 9.48523 14.8293 9.53242C14.7262 9.57962 14.6148 9.60604 14.5015 9.61018C14.3882 9.61432 14.2751 9.59609 14.1688 9.55655C14.0626 9.517 13.9651 9.45691 13.882 9.3797C13.799 9.30249 13.7319 9.20968 13.6847 9.10656C13.6488 9.04188 13.178 8.20453 11.5285 8.20453C9.87896 8.20453 9.83943 8.92328 9.83943 9.53422C9.83943 10.253 11.2266 10.5225 11.6363 10.5836C12.8043 10.7561 15.5355 11.1514 15.5355 13.8467C15.5427 15.4136 13.8501 16.5312 11.5177 16.5312Z" fill="#00AFEE"/>
</svg>
