<svg width="23" height="23" viewBox="0 0 23 23" fill="none" xmlns="http://www.w3.org/2000/svg">
<path d="M20.125 23H2.875C1.288 23 0 21.712 0 20.125V2.875C0 1.288 1.288 0 2.875 0H20.125C21.712 0 23 1.288 23 2.875V20.125C23 21.712 21.712 23 20.125 23Z" fill="#1DA1F2"/>
<path d="M8.83211 17.342C14.2544 17.342 17.2214 12.8455 17.2214 8.95271C17.2214 8.82621 17.2214 8.69971 17.2156 8.57321C17.7906 8.15921 18.2909 7.63596 18.6876 7.04371C18.1586 7.27946 17.5894 7.43471 16.9914 7.50946C17.6009 7.14721 18.0666 6.56646 18.2909 5.87646C17.7216 6.21571 17.0891 6.45721 16.4164 6.58946C15.8759 6.01446 15.1111 5.65796 14.2659 5.65796C12.6386 5.65796 11.3161 6.98046 11.3161 8.60771C11.3161 8.83771 11.3449 9.06196 11.3909 9.28046C8.94136 9.15971 6.76786 7.98096 5.31311 6.19846C5.06011 6.63546 4.91636 7.14146 4.91636 7.68196C4.91636 8.70546 5.43961 9.60821 6.22736 10.1372C5.74436 10.12 5.29011 9.98771 4.89336 9.76921V9.80946C4.89336 11.2355 5.91111 12.4315 7.25661 12.7017C7.00936 12.7707 6.75061 12.8052 6.48036 12.8052C6.29061 12.8052 6.10661 12.788 5.92836 12.7535C6.30211 13.9265 7.39461 14.7775 8.68261 14.8005C7.67061 15.594 6.39986 16.0655 5.01986 16.0655C4.78411 16.0655 4.54836 16.054 4.31836 16.0252C5.61786 16.8532 7.17036 17.342 8.83211 17.342" fill="white"/>
</svg>
