<?xml version="1.0" encoding="UTF-8"?><svg id="a" xmlns="http://www.w3.org/2000/svg" width="23" height="23" viewBox="0 0 23 23"><defs><style>.b{fill:#fefefe;}.c{fill:#dd2925;}</style></defs><path class="c" d="M19.91-.15H3.09C1.38-.15,0,1.24,0,2.94V19.76c0,1.71,1.38,3.09,3.09,3.09H19.91c1.71,0,3.09-1.38,3.09-3.09V2.94c0-1.71-1.38-3.09-3.09-3.09Z"/><path class="b" d="M18.31,8.99s-.07-2.45-2.71-2.58c0,0-4.19-.25-8.33,.02,0,0-2.42,.05-2.57,2.39,0,0-.2,2.66-.03,4.9,0,0,.05,2.27,2.52,2.46,0,0,5.57,.25,8.97-.03,0,0,1.82-.08,2.11-2.14,0,0,.3-1.7,.04-5.01Zm-6.37,3.58l-2.12,1.22v-4.89l2.12,1.22,2.12,1.22-2.12,1.22Z"/></svg>