<svg width="64" height="64" viewBox="0 0 64 64" fill="none" xmlns="http://www.w3.org/2000/svg">
<path d="M54.4524 40.4788C56.5093 35.0321 56.516 29.0234 54.4715 23.572C52.4269 18.1206 48.4705 13.5984 43.3391 10.8476C38.2078 8.09687 32.2514 7.30522 26.5797 8.62013C20.908 9.93505 15.9076 13.2669 12.5101 17.9949C9.11263 22.723 7.54967 28.5249 8.11242 34.3197C8.67516 40.1146 11.3252 45.5074 15.5689 49.4934C19.8127 53.4794 25.3607 55.7869 31.1794 55.986C36.9982 56.185 42.6909 54.2621 47.1971 50.5755L45.2125 48.2113C41.2868 51.4307 36.3249 53.1136 31.2507 52.9464C26.1765 52.7793 21.336 50.7737 17.6307 47.3029C13.9254 43.8322 11.6079 39.133 11.1098 34.0806C10.6117 29.0282 11.9669 23.9669 14.9231 19.8394C17.8792 15.7119 22.2348 12.7996 27.1787 11.6448C32.1225 10.49 37.3176 11.1714 41.7964 13.5623C46.2751 15.9531 49.7322 19.8903 51.5238 24.6406C53.3155 29.3908 53.3195 34.6304 51.5351 39.3834L54.4524 40.4788Z" fill="#EC4747"/>
<path d="M30.888 34.784L30.264 26.576L30.144 23H34.104L33.984 26.576L33.36 34.784H30.888ZM32.136 41.192C30.888 41.192 30 40.304 30 39.056C30 37.808 30.912 36.944 32.136 36.944C33.336 36.944 34.248 37.808 34.248 39.056C34.248 40.304 33.336 41.192 32.136 41.192Z" fill="#EC4747"/>
</svg>
