<svg width="24" height="24" viewBox="0 0 24 24" fill="none" xmlns="http://www.w3.org/2000/svg">
<path fill-rule="evenodd" clip-rule="evenodd" d="M13.4547 6.65585C13.4545 6.65603 13.4549 6.65567 13.4547 6.65585L11.6496 8.46763L10.4453 7.26776L12.2526 5.45377C13.0873 4.61911 14.2193 4.15021 15.3997 4.15021C16.5801 4.15021 17.7121 4.61911 18.5468 5.45377C19.3814 6.28843 19.8503 7.42046 19.8503 8.60084C19.8503 9.78123 19.3814 10.9133 18.5468 11.7479L16.7328 13.5552L15.5329 12.351L17.3447 10.5458C17.3449 10.5457 17.3445 10.546 17.3447 10.5458C17.8602 10.03 18.1503 9.3301 18.1503 8.60084C18.1503 7.87133 17.8605 7.17169 17.3447 6.65585C16.8289 6.14001 16.1292 5.85021 15.3997 5.85021C14.6705 5.85021 13.9705 6.14035 13.4547 6.65585Z" fill="#5F5F5F"/>
<path fill-rule="evenodd" clip-rule="evenodd" d="M5.45506 12.251L7.26794 10.4448L8.46781 11.6491L6.65603 13.4542C6.65587 13.4543 6.6562 13.454 6.65603 13.4542C6.1405 13.97 5.85039 14.6699 5.85039 15.3992C5.85039 16.1287 6.14019 16.8283 6.65603 17.3442C7.17188 17.86 7.87151 18.1498 8.60103 18.1498C9.33028 18.1498 10.0297 17.8602 10.5455 17.3447C10.5457 17.3445 10.5453 17.3449 10.5455 17.3447L12.3511 15.5324L13.5554 16.7322L11.7481 18.5462C10.9134 19.3809 9.78141 19.8498 8.60103 19.8498C7.42064 19.8498 6.28861 19.3809 5.45395 18.5462C4.6193 17.7116 4.15039 16.5795 4.15039 15.3992C4.15039 14.2188 4.6193 13.0867 5.45395 12.2521L5.45506 12.251Z" fill="#5F5F5F"/>
<path fill-rule="evenodd" clip-rule="evenodd" d="M8.2207 14.5781L14.5791 8.21973L15.7812 9.42181L9.42278 15.7802L8.2207 14.5781Z" fill="#5F5F5F"/>
</svg>
