<svg width="23" height="23" viewBox="0 0 23 23" fill="none" xmlns="http://www.w3.org/2000/svg">
<g clip-path="url(#clip0_901_2)">
<path d="M23 11.5C23 5.14872 17.8513 0 11.5 0C5.14872 0 0 5.14872 0 11.5C0 17.24 4.20541 21.9976 9.70312 22.8603V14.8242H6.7832V11.5H9.70312V8.96641C9.70312 6.08422 11.42 4.49219 14.0468 4.49219C15.3051 4.49219 16.6211 4.7168 16.6211 4.7168V7.54688H15.171C13.7424 7.54688 13.2969 8.43332 13.2969 9.34276V11.5H16.4863L15.9765 14.8242H13.2969V22.8603C18.7946 21.9976 23 17.24 23 11.5Z" fill="url(#paint0_linear_901_2)"/>
<path d="M15.9765 14.8242L16.4863 11.5H13.2969V9.34276C13.2969 8.43332 13.7424 7.54688 15.171 7.54688H16.6211V4.7168C16.6211 4.7168 15.305 4.49219 14.0468 4.49219C11.42 4.49219 9.70312 6.08422 9.70312 8.96641V11.5H6.7832V14.8242H9.70312V22.8603C10.2886 22.9522 10.8887 23 11.5 23C12.1113 23 12.7114 22.9522 13.2969 22.8603V14.8242H15.9765Z" fill="white"/>
</g>
<defs>
<linearGradient id="paint0_linear_901_2" x1="11.5" y1="0" x2="11.5" y2="22.8603" gradientUnits="userSpaceOnUse">
<stop stop-color="#17AAFD"/>
<stop offset="1" stop-color="#036AE3"/>
</linearGradient>
<clipPath id="clip0_901_2">
<rect width="23" height="23" fill="white"/>
</clipPath>
</defs>
</svg>
