<svg width="23" height="23" viewBox="0 0 23 23" fill="none" xmlns="http://www.w3.org/2000/svg">
<path d="M11.5 23C5.1497 23 0 17.8503 0 11.5C0 5.1497 5.1497 0 11.5 0C17.8503 0 23 5.1497 23 11.5C23 17.8503 17.8503 23 11.5 23Z" fill="url(#paint0_linear_1367_4233)"/>
<path d="M11.4997 5.06465C13.595 5.06465 13.8434 5.07155 14.6714 5.11065C15.4373 5.14515 15.8536 5.27395 16.1296 5.38205C16.4953 5.52465 16.7575 5.69485 17.0312 5.96855C17.3049 6.24225 17.4751 6.50445 17.6177 6.87015C17.7258 7.14615 17.8523 7.56245 17.8891 8.32835C17.9259 9.15635 17.9351 9.40475 17.9351 11.5C17.9351 13.5953 17.9282 13.8437 17.8891 14.6717C17.8546 15.4376 17.7258 15.8539 17.6177 16.1299C17.4751 16.4956 17.3049 16.7578 17.0312 17.0315C16.7575 17.3052 16.4953 17.4754 16.1296 17.618C15.8536 17.7261 15.4373 17.8526 14.6714 17.8894C13.8434 17.9262 13.595 17.9354 11.4997 17.9354C9.40436 17.9354 9.15596 17.9285 8.32796 17.8894C7.56206 17.8549 7.14576 17.7261 6.86976 17.618C6.50406 17.4754 6.24186 17.3052 5.96816 17.0315C5.69446 16.7578 5.52426 16.4956 5.38166 16.1299C5.27356 15.8539 5.14706 15.4376 5.11026 14.6717C5.07346 13.8437 5.06426 13.5953 5.06426 11.5C5.06426 9.40475 5.07116 9.15635 5.11026 8.32835C5.14476 7.56245 5.27356 7.14615 5.38166 6.87015C5.52426 6.50445 5.69446 6.24225 5.96816 5.96855C6.24186 5.69485 6.50406 5.52465 6.86976 5.38205C7.14576 5.27395 7.56206 5.14745 8.32796 5.11065C9.15596 5.07155 9.40436 5.06465 11.4997 5.06465ZM11.4997 3.65015C9.36756 3.65015 9.10076 3.65935 8.26356 3.69845C7.42866 3.73755 6.85826 3.86865 6.35686 4.06415C5.84166 4.26195 5.40236 4.53105 4.96766 4.96805C4.53066 5.40505 4.26386 5.84205 4.06146 6.35955C3.86826 6.85865 3.73486 7.42905 3.69576 8.26625C3.65666 9.10345 3.64746 9.37025 3.64746 11.5023C3.64746 13.6344 3.65666 13.9012 3.69576 14.7384C3.73486 15.5733 3.86596 16.1437 4.06146 16.6451C4.26156 17.158 4.53066 17.5973 4.96766 18.032C5.40466 18.469 5.84166 18.7358 6.35916 18.9382C6.85826 19.1314 7.42866 19.2648 8.26586 19.3039C9.10306 19.343 9.36986 19.3522 11.502 19.3522C13.6341 19.3522 13.9009 19.343 14.7381 19.3039C15.573 19.2648 16.1434 19.1337 16.6448 18.9382C17.1577 18.7381 17.597 18.469 18.0317 18.032C18.4687 17.595 18.7355 17.158 18.9379 16.6405C19.1311 16.1414 19.2645 15.571 19.3036 14.7338C19.3427 13.8966 19.3519 13.6298 19.3519 11.4977C19.3519 9.36565 19.3427 9.09885 19.3036 8.26165C19.2645 7.42675 19.1334 6.85635 18.9379 6.35495C18.7378 5.84205 18.4687 5.40275 18.0317 4.96805C17.5947 4.53105 17.1577 4.26425 16.6402 4.06185C16.1411 3.86865 15.5707 3.73525 14.7335 3.69615C13.8986 3.65935 13.6318 3.65015 11.4997 3.65015Z" fill="white"/>
<path d="M11.4997 7.46814C9.27327 7.46814 7.46777 9.27364 7.46777 11.5C7.46777 13.7264 9.27327 15.5319 11.4997 15.5319C13.7261 15.5319 15.5316 13.7264 15.5316 11.5C15.5316 9.27364 13.7261 7.46814 11.4997 7.46814ZM11.4997 14.1174C10.0553 14.1174 8.88227 12.9467 8.88227 11.5C8.88227 10.0533 10.0553 8.88264 11.4997 8.88264C12.9441 8.88264 14.1171 10.0533 14.1171 11.5C14.1171 12.9467 12.9441 14.1174 11.4997 14.1174Z" fill="white"/>
<path d="M15.6901 8.25246C16.2109 8.25246 16.6331 7.83026 16.6331 7.30946C16.6331 6.78865 16.2109 6.36646 15.6901 6.36646C15.1693 6.36646 14.7471 6.78865 14.7471 7.30946C14.7471 7.83026 15.1693 8.25246 15.6901 8.25246Z" fill="white"/>
<defs>
<linearGradient id="paint0_linear_1367_4233" x1="3.36827" y1="19.6317" x2="19.6317" y2="3.36827" gradientUnits="userSpaceOnUse">
<stop stop-color="#FFD521"/>
<stop offset="0.0551048" stop-color="#FFD020"/>
<stop offset="0.1241" stop-color="#FEC01E"/>
<stop offset="0.2004" stop-color="#FCA71B"/>
<stop offset="0.2821" stop-color="#FA8316"/>
<stop offset="0.3681" stop-color="#F85510"/>
<stop offset="0.4563" stop-color="#F51E09"/>
<stop offset="0.5" stop-color="#F30005"/>
<stop offset="0.5035" stop-color="#F20007"/>
<stop offset="0.5966" stop-color="#E1003B"/>
<stop offset="0.6879" stop-color="#D30067"/>
<stop offset="0.7757" stop-color="#C70088"/>
<stop offset="0.8589" stop-color="#BF00A0"/>
<stop offset="0.9357" stop-color="#BB00AF"/>
<stop offset="1" stop-color="#B900B4"/>
</linearGradient>
</defs>
</svg>
