<svg width="23" height="23" viewBox="0 0 23 23" fill="none" xmlns="http://www.w3.org/2000/svg">
<circle cx="11.5" cy="11.5" r="11.5" fill="#00CF2E"/>
<path d="M19.5497 10.6835C19.5497 7.77398 16.1112 4.59998 11.6147 4.59998C7.23391 4.59998 3.67969 7.17885 3.67969 10.6835C3.67969 13.917 6.45033 16.5884 10.3484 16.9819C10.4671 16.9917 10.5821 17.0283 10.6846 17.089C10.7871 17.1497 10.8745 17.2329 10.9402 17.3323C11.0339 17.4797 11.0843 17.6504 11.0857 17.825C11.0766 18.1837 11.0368 18.541 10.9667 18.8929C10.9559 18.9406 10.9585 18.9903 10.9743 19.0366C10.9901 19.0829 11.0184 19.1239 11.056 19.1551C11.0937 19.1863 11.1393 19.2064 11.1877 19.2132C11.2362 19.22 11.2855 19.2133 11.3304 19.1938C13.1984 18.3672 19.5497 14.9684 19.5497 10.6835Z" fill="white"/>
<path d="M8.70543 12.1384H7.51518V9.36111C7.51518 9.25588 7.47338 9.15497 7.39897 9.08056C7.32457 9.00616 7.22365 8.96436 7.11843 8.96436C7.0132 8.96436 6.91229 9.00616 6.83788 9.08056C6.76348 9.15497 6.72168 9.25588 6.72168 9.36111V12.5351C6.72168 12.6403 6.76348 12.7412 6.83788 12.8157C6.91229 12.8901 7.0132 12.9319 7.11843 12.9319H8.70543C8.81065 12.9319 8.91157 12.8901 8.98597 12.8157C9.06038 12.7412 9.10218 12.6403 9.10218 12.5351C9.10218 12.4299 9.06038 12.329 8.98597 12.2546C8.91157 12.1802 8.81065 12.1384 8.70543 12.1384V12.1384Z" fill="#00CF2E"/>
<path d="M9.76296 8.96436C9.65774 8.96436 9.55682 9.00616 9.48242 9.08056C9.40801 9.15497 9.36621 9.25588 9.36621 9.36111V12.5351C9.36621 12.6403 9.40801 12.7412 9.48242 12.8157C9.55682 12.8901 9.65774 12.9319 9.76296 12.9319C9.86819 12.9319 9.9691 12.8901 10.0435 12.8157C10.1179 12.7412 10.1597 12.6403 10.1597 12.5351V9.36111C10.1597 9.25588 10.1179 9.15497 10.0435 9.08056C9.9691 9.00616 9.86819 8.96436 9.76296 8.96436V8.96436Z" fill="#00CF2E"/>
<path d="M13.4672 8.96436C13.415 8.96436 13.3635 8.97462 13.3153 8.99456C13.2672 9.01449 13.2234 9.04372 13.1866 9.08056C13.1498 9.1174 13.1205 9.16114 13.1006 9.20928C13.0807 9.25741 13.0704 9.309 13.0704 9.36111V11.3449L11.4173 9.12306C11.3673 9.05644 11.2977 9.00723 11.2182 8.9824C11.1387 8.95757 11.0534 8.95838 10.9744 8.98472C10.8954 9.01105 10.8267 9.06157 10.778 9.12912C10.7293 9.19667 10.7031 9.27783 10.7031 9.36111V12.5351C10.72 12.6263 10.7682 12.7087 10.8395 12.768C10.9108 12.8273 11.0006 12.8597 11.0933 12.8597C11.186 12.8597 11.2758 12.8273 11.347 12.768C11.4183 12.7087 11.4665 12.6263 11.4834 12.5351V10.5514L13.1365 12.7732C13.1746 12.8245 13.2246 12.8657 13.2822 12.8934C13.3398 12.921 13.4033 12.9342 13.4672 12.9319C13.5098 12.9317 13.5522 12.925 13.5928 12.912C13.6718 12.8856 13.7406 12.835 13.7892 12.7674C13.8379 12.6997 13.864 12.6184 13.8639 12.5351V9.36111C13.8639 9.309 13.8536 9.25741 13.8337 9.20928C13.8138 9.16114 13.7845 9.1174 13.7477 9.08056C13.7109 9.04372 13.6671 9.01449 13.619 8.99456C13.5708 8.97462 13.5193 8.96436 13.4672 8.96436V8.96436Z" fill="#00CF2E"/>
<path d="M16.3754 11.3449C16.4275 11.3449 16.479 11.3346 16.5272 11.3147C16.5753 11.2947 16.6191 11.2655 16.6559 11.2287C16.6927 11.1918 16.722 11.1481 16.7419 11.0999C16.7618 11.0518 16.7721 11.0002 16.7721 10.9481C16.7721 10.896 16.7618 10.8444 16.7419 10.7963C16.722 10.7481 16.6927 10.7044 16.6559 10.6676C16.6191 10.6307 16.5753 10.6015 16.5272 10.5816C16.479 10.5616 16.4275 10.5514 16.3754 10.5514H15.1851V9.75786H16.3754C16.4806 9.75786 16.5815 9.71605 16.6559 9.64165C16.7303 9.56724 16.7721 9.46633 16.7721 9.36111C16.7721 9.25588 16.7303 9.15497 16.6559 9.08056C16.5815 9.00616 16.4806 8.96436 16.3754 8.96436H14.7884C14.6831 8.96436 14.5822 9.00616 14.5078 9.08056C14.4334 9.15497 14.3916 9.25588 14.3916 9.36111V12.5351C14.3916 12.6403 14.4334 12.7412 14.5078 12.8157C14.5822 12.8901 14.6831 12.9319 14.7884 12.9319H16.3754C16.4806 12.9319 16.5815 12.8901 16.6559 12.8157C16.7303 12.7412 16.7721 12.6403 16.7721 12.5351C16.7721 12.4299 16.7303 12.329 16.6559 12.2546C16.5815 12.1802 16.4806 12.1384 16.3754 12.1384H15.1851V11.3449H16.3754Z" fill="#00CF2E"/>
</svg>
