<svg width="23" height="23" viewBox="0 0 23 23" fill="none" xmlns="http://www.w3.org/2000/svg">
<path d="M11.5 23C17.8513 23 23 17.8513 23 11.5C23 5.14873 17.8513 0 11.5 0C5.14873 0 0 5.14873 0 11.5C0 17.8513 5.14873 23 11.5 23Z" fill="#007BB5"/>
<path d="M7.90625 7.90625H5.03125V17.9688H7.90625V7.90625Z" fill="white"/>
<path d="M14.7337 7.90625C12.7276 7.90625 12.3826 8.63794 12.2188 9.34375V7.90625H9.34375V17.9688H12.2188V12.2188C12.2188 11.2865 12.724 10.7812 13.6562 10.7812C14.5662 10.7812 15.0938 11.2757 15.0938 12.2188V17.9688H17.9688V12.9375C17.9688 10.0625 17.5943 7.90625 14.7337 7.90625Z" fill="white"/>
<path d="M6.46875 7.1875C7.26266 7.1875 7.90625 6.54391 7.90625 5.75C7.90625 4.95609 7.26266 4.3125 6.46875 4.3125C5.67484 4.3125 5.03125 4.95609 5.03125 5.75C5.03125 6.54391 5.67484 7.1875 6.46875 7.1875Z" fill="white"/>
</svg>
