<svg width="23" height="24" viewBox="0 0 23 24" fill="none" xmlns="http://www.w3.org/2000/svg">
<g clip-path="url(#clip0_901_5)">
<path d="M0 11.6441C0 5.36513 5.08875 0.276367 11.3678 0.276367C17.6467 0.276367 22.7355 5.36513 22.7355 11.6441C22.7355 17.9231 17.6467 23.0119 11.3678 23.0119C5.08875 23.0119 0 17.9231 0 11.6441Z" fill="#FFC165"/>
<path d="M17.7645 14.9613V9.27456C17.7645 9.27456 11.9455 13.2852 11.3792 13.4951C10.8214 13.2967 4.97363 9.27456 4.97363 9.27456V14.9584C4.97363 15.7491 5.14326 15.9072 5.93388 15.9072H16.8043C17.615 15.9072 17.7645 15.7692 17.7645 14.9613ZM17.753 8.16194C17.753 7.58694 17.5834 7.38281 16.8043 7.38281H5.93388C5.13176 7.38281 4.97363 7.63006 4.97363 8.20506L4.98226 8.29419C4.98226 8.29419 10.761 12.2214 11.3763 12.4371C12.0289 12.1869 17.7616 8.20506 17.7616 8.20506L17.753 8.16194Z" fill="white"/>
</g>
<defs>
<clipPath id="clip0_901_5">
<rect width="23" height="23.2875" fill="white"/>
</clipPath>
</defs>
</svg>
