<svg width="23" height="23" viewBox="0 0 23 23" fill="none" xmlns="http://www.w3.org/2000/svg">
<path d="M11.5 23C5.1497 23 0 17.8503 0 11.5C0 5.1497 5.1497 0 11.5 0C17.8503 0 23 5.1497 23 11.5C23 17.8503 17.8503 23 11.5 23Z" fill="#00AFED"/>
<path d="M11.5273 15.7228C9.19508 15.7228 8.13018 14.536 8.13018 13.6643C8.13018 13.2181 8.47978 12.9099 8.92828 12.9099C9.92648 12.9099 9.66658 14.4072 11.5273 14.4072C12.4795 14.4072 13.0384 13.8345 13.0384 13.2963C13.0384 12.972 12.8521 12.6132 12.2265 12.4568L10.1542 11.9301C8.48438 11.5046 8.19228 10.5777 8.19228 9.71517C8.19228 7.92577 9.82758 7.27947 11.3847 7.27947C12.8199 7.27947 14.5242 8.07067 14.5242 9.14477C14.5242 9.60477 14.1378 9.85547 13.6916 9.85547C12.8406 9.85547 12.9809 8.65717 11.2674 8.65717C10.4164 8.65717 9.96788 9.05507 9.96788 9.61627C9.96788 10.1752 10.6257 10.3638 11.2099 10.4995L12.744 10.8445C14.4253 11.224 14.8738 12.2107 14.8738 13.1491C14.8692 14.6004 13.7445 15.7228 11.5273 15.7228ZM17.9627 12.6454C18.0271 12.2728 18.0616 11.891 18.0616 11.5C18.0616 7.85447 15.1222 4.89897 11.4997 4.89897C11.111 4.89897 10.7292 4.93347 10.3589 4.99787C9.78848 4.66897 9.12838 4.48267 8.42458 4.48267C6.26948 4.48267 4.52148 6.23987 4.52148 8.40647C4.52148 9.11487 4.70778 9.77957 5.03438 10.3523C4.96998 10.7249 4.93548 11.1067 4.93548 11.4977C4.93548 15.1432 7.87488 18.0987 11.4974 18.0987C11.8861 18.0987 12.2679 18.0642 12.6382 17.9998C13.2086 18.3287 13.8687 18.515 14.5725 18.515C16.7276 18.515 18.4756 16.7578 18.4756 14.5912C18.4756 13.8851 18.2893 13.2204 17.9627 12.6454Z" fill="white"/>
</svg>
