<svg width="23" height="23" viewBox="0 0 23 23" fill="none" xmlns="http://www.w3.org/2000/svg">
<path d="M11.5 0C17.8503 0 23 5.1497 23 11.5C23 17.8503 17.8503 23 11.5 23C5.1497 23 0 17.8503 0 11.5C0 5.1497 5.1497 0 11.5 0Z" fill="#1DA1F2"/>
<path d="M8.83228 17.342C14.2557 17.342 17.225 12.8478 17.225 8.94925C17.225 8.82275 17.225 8.69395 17.2158 8.56745C17.7931 8.14885 18.2922 7.63365 18.6878 7.04025C18.1496 7.27945 17.5792 7.43585 16.995 7.50485C17.6114 7.13685 18.0714 6.55725 18.2922 5.87415C17.7126 6.21685 17.0801 6.46065 16.42 6.58945C15.3022 5.40265 13.4346 5.34515 12.2478 6.46065C11.4819 7.18055 11.1576 8.25465 11.3945 9.27815C9.02318 9.15855 6.81288 8.03845 5.31558 6.19615C4.53358 7.54395 4.93148 9.26665 6.22868 10.1338C5.75948 10.12 5.29948 9.99345 4.89008 9.76575C4.89008 9.77725 4.89008 9.79105 4.89008 9.80255C4.89008 11.2056 5.87908 12.4154 7.25678 12.6937C6.82208 12.811 6.36668 12.8294 5.92508 12.7443C6.31148 13.9449 7.41778 14.7683 8.68048 14.7936C7.63628 15.6147 6.34598 16.0609 5.01888 16.0586C4.78428 16.0586 4.54968 16.0448 4.31738 16.0149C5.66058 16.882 7.23148 17.342 8.83228 17.3397" fill="white"/>
</svg>
