<svg width="80" height="81" viewBox="0 0 80 81" fill="none" xmlns="http://www.w3.org/2000/svg">
<path d="M39.54 80.04C61.3773 80.04 79.08 62.3373 79.08 40.5C79.08 18.6626 61.3773 0.959961 39.54 0.959961C17.7027 0.959961 0 18.6626 0 40.5C0 62.3373 17.7027 80.04 39.54 80.04Z" fill="#F90D1B"/>
<path fill-rule="evenodd" clip-rule="evenodd" d="M55.6901 26.5799C57.5001 27.0799 58.9301 28.5499 59.4201 30.4099C60.3001 33.7899 60.3001 40.8299 60.3001 40.8299C60.3001 40.8299 60.3001 47.8799 59.4201 51.2499C58.9301 53.1099 57.5101 54.5799 55.6901 55.0799C52.4001 55.9799 39.2101 55.9799 39.2101 55.9799C39.2101 55.9799 26.0201 55.9799 22.7301 55.0799C20.9201 54.5799 19.4901 53.1099 19.0001 51.2499C18.1201 47.8699 18.1201 40.8299 18.1201 40.8299C18.1201 40.8299 18.1201 33.7799 19.0001 30.4099C19.4901 28.5499 20.9101 27.0799 22.7301 26.5799C26.0201 25.6699 39.2101 25.6699 39.2101 25.6699C39.2101 25.6699 52.4001 25.6699 55.6901 26.5799ZM35.5901 35.2299V48.4099L46.1401 41.8199L35.5901 35.2299Z" fill="white"/>
</svg>
